# xmcd CD database file
#
# Track frame offsets:
#	150
#	15225
#	30375
#	53100
#	68926
#	102317
#
# Disc length: 1927 seconds
#
# Revision: 1
# Processed by: cddbd v1.5.1PL0 Copyright (c) Steve Scherf et al.
# Submitted via: CDex 1.51
#
DISCID=40078506
DTITLE=倭製ジェロニモ&ラブゲリラエクスペリエンス - アウトサイド
DYEAR=2005
DGENRE=JPop
TTITLE0=アウトサイド
TTITLE1=世界を買った男
TTITLE2=Planet Bound
TTITLE3=リボルバー
TTITLE4=マシンガンサンデー
TTITLE5=Data Track
EXTD=YEAR: 2005
EXTT0=
EXTT1=
EXTT2=
EXTT3=
EXTT4=
EXTT5=
PLAYORDER=
